<?xml version="1.0" encoding="UTF-8" standalone="no"?> <svg width="512" height="512" viewBox="0 0 512 512" fill="none" xmlns="http://www.w3.org/2000/svg">
<path fill-rule="evenodd" clip-rule="evenodd" d="M128 32C74.9807 32 32 74.9807 32 128V384C32 437.019 74.9807 480 128 480H384C437.019 480 480 437.019 480 384V128C480 74.9807 437.019 32 384 32H128ZM256 104C273.673 104 288 118.327 288 136C288 153.673 273.673 168 256 168C238.327 168 224 153.673 224 136C224 118.327 238.327 104 256 104ZM232 200C227.582 200 224 203.582 224 208V400C224 404.418 227.582 408 232 408H280C284.418 408 288 404.418 288 400V208C288 203.582 284.418 200 280 200H232Z" fill="black"/>
</svg>
