<?xml version="1.0" encoding="UTF-8" standalone="no"?> <svg width="512" height="512" viewBox="0 0 512 512" fill="none" xmlns="http://www.w3.org/2000/svg">
<path fill-rule="evenodd" clip-rule="evenodd" d="M24 128C24 70.5624 70.5624 24 128 24H384C441.438 24 488 70.5624 488 128V384C488 441.438 441.438 488 384 488H128C70.5624 488 24 441.438 24 384V128ZM128 40C79.3989 40 40 79.3989 40 128V384C40 432.601 79.3989 472 128 472H384C432.601 472 472 432.601 472 384V128C472 79.3989 432.601 40 384 40H128ZM256 160C242.745 160 232 149.255 232 136C232 122.745 242.745 112 256 112C269.255 112 280 122.745 280 136C280 149.255 269.255 160 256 160ZM216 136C216 158.091 233.909 176 256 176C278.091 176 296 158.091 296 136C296 113.909 278.091 96 256 96C233.909 96 216 113.909 216 136ZM232 192C223.163 192 216 199.163 216 208V400C216 408.837 223.163 416 232 416H280C288.837 416 296 408.837 296 400V208C296 199.163 288.837 192 280 192H232ZM232 400V208H280V400H232Z" fill="black"/>
</svg>
